<?xml version="1.0" encoding="utf-8"?>
<!-- Generator: Adobe Illustrator 15.1.0, SVG Export Plug-In . SVG Version: 6.00 Build 0)  -->
<!DOCTYPE svg PUBLIC "-//W3C//DTD SVG 1.1//EN" "http://www.w3.org/Graphics/SVG/1.1/DTD/svg11.dtd">
<svg version="1.1" id="Layer_1" xmlns="http://www.w3.org/2000/svg" xmlns:xlink="http://www.w3.org/1999/xlink" x="0px" y="0px"
	 width="623.622px" height="623.622px" viewBox="109.134 -14.17 623.622 623.622"
	 enable-background="new 109.134 -14.17 623.622 623.622" xml:space="preserve">
<g>
	<path d="M147.795,403.037c-3.927,7.827-5.993,16.471-5.993,25.499c0,22.133,12.674,41.537,31.492,51.022
		c-5.813,11.628-7.521,25.015-4.59,38.301c5.712,25.804,29.987,44.545,57.755,44.545h234.056c17.721,0,46.281-5.736,67.495-16.651
		c8.9,24.53,32.436,42.126,60.025,42.126h76.497c35.137,0,63.747-28.61,63.747-63.747V320.138c0-35.137-28.61-63.747-63.747-63.748
		H537.037c-7.038,0-12.75,5.712-12.75,12.75v4.871l-3.061-1.53L447.79,113.342V26.901c0-3.875-1.733-7.522-4.768-9.97
		c-0.79-0.637-19.736-15.529-46.23-15.529c-29.502,0-76.497,46.688-76.497,101.996c0,34.882,12.495,78.306,20.248,101.996H183.061
		c-34.296,0-63.519,25.397-66.476,57.806c-1.657,18.155,4.385,35.647,16.294,48.679c-10.479,10.555-16.575,24.835-16.575,40.159
		C116.304,374.145,128.978,393.551,147.795,403.037z M549.788,294.973c0-0.077,0.051-0.128,0.051-0.204v-12.75h114.694v-0.127
		c21.089,0,38.249,17.161,38.249,38.248v203.993c0,21.087-17.136,38.249-38.249,38.249h-76.497
		c-21.062,0-38.248-17.162-38.248-38.249V294.973z M141.854,352.09c0-11.883,6.681-22.693,17.441-28.201
		c4.105-2.118,6.756-6.248,6.911-10.839c0.177-4.59-2.118-8.949-6.044-11.347c-12.546-7.726-19.482-21.546-18.13-36.081
		c1.783-19.431,19.839-34.628,41.104-34.628h175.458c4.207,0,8.108-2.065,10.506-5.508s2.907-7.854,1.428-11.755
		c-0.255-0.638-24.657-65.354-24.657-110.207c0-41.742,37.025-76.497,50.999-76.497c10.989,0,20.195,4.004,25.498,6.936v82.311
		c0,1.836,0.408,3.672,1.172,5.33l76.498,165.744c1.224,2.625,3.289,4.768,5.864,6.068l18.385,9.179v215.469
		c-14.305,10.634-44.801,18.817-63.747,18.817H226.484c-15.911,0-29.731-10.326-32.868-24.53
		c-2.525-11.396,0.842-22.515,9.255-30.445c3.622-3.392,4.897-8.595,3.341-13.285c-1.554-4.718-5.712-8.06-10.632-8.619
		c-16.115-1.836-28.253-15.375-28.253-31.44c0-8.771,3.57-16.982,10.071-23.127c3.623-3.392,4.897-8.594,3.342-13.286
		c-1.555-4.717-5.713-8.058-10.632-8.618C154.018,381.693,141.878,368.154,141.854,352.09z"/>
</g>
</svg>
