<?xml version="1.0" encoding="utf-8"?>
<!-- Generator: Adobe Illustrator 15.1.0, SVG Export Plug-In . SVG Version: 6.00 Build 0)  -->
<!DOCTYPE svg PUBLIC "-//W3C//DTD SVG 1.1//EN" "http://www.w3.org/Graphics/SVG/1.1/DTD/svg11.dtd">
<svg version="1.1" id="Layer_1" xmlns="http://www.w3.org/2000/svg" xmlns:xlink="http://www.w3.org/1999/xlink" x="0px" y="0px"
	 width="98.59px" height="96.141px" viewBox="0 499.14 98.59 96.141" enable-background="new 0 499.14 98.59 96.141"
	 xml:space="preserve">
<g>
	<g>
		<path d="M14.748,559.798c-0.554,1.104-0.846,2.324-0.846,3.598c0,3.123,1.788,5.861,4.443,7.199
			c-0.82,1.641-1.062,3.529-0.648,5.404c0.806,3.641,4.231,6.285,8.149,6.285H58.87c2.5,0,6.53-0.81,9.523-2.35
			c1.256,3.461,4.576,5.943,8.469,5.943h10.793c4.958,0,8.994-4.037,8.994-8.994v-28.781c0-4.958-4.037-8.995-8.994-8.995H69.666
			c-0.993,0-1.799,0.807-1.799,1.799v0.688l-0.432-0.216l-10.361-22.453v-12.196c0-0.547-0.245-1.062-0.673-1.406
			c-0.111-0.09-2.785-2.191-6.522-2.191c-4.163,0-10.793,6.588-10.793,14.391c0,4.922,1.763,11.049,2.857,14.391H19.723
			c-4.839,0-8.962,3.584-9.379,8.156c-0.233,2.562,0.619,5.029,2.299,6.868c-1.479,1.489-2.339,3.504-2.339,5.666
			C10.304,555.722,12.092,558.46,14.748,559.798z M71.465,544.552c0-0.011,0.007-0.019,0.007-0.029v-1.799h16.183v-0.018
			c2.975,0,5.396,2.421,5.396,5.396v28.781c0,2.976-2.417,5.396-5.396,5.396H76.862c-2.972,0-5.396-2.421-5.396-5.396V544.552z
			 M13.909,552.611c0-1.677,0.942-3.202,2.461-3.979c0.579-0.299,0.953-0.881,0.975-1.529c0.025-0.647-0.299-1.263-0.853-1.601
			c-1.77-1.09-2.749-3.04-2.558-5.091c0.251-2.741,2.799-4.886,5.799-4.886H44.49c0.593,0,1.144-0.291,1.482-0.777
			c0.338-0.485,0.41-1.107,0.202-1.658c-0.036-0.09-3.479-9.221-3.479-15.549c0-5.89,5.224-10.794,7.195-10.794
			c1.551,0,2.85,0.565,3.598,0.979v11.613c0,0.259,0.058,0.518,0.166,0.752l10.793,23.385c0.173,0.37,0.464,0.673,0.828,0.856
			l2.594,1.295v30.4c-2.018,1.501-6.321,2.655-8.994,2.655H25.85c-2.245,0-4.195-1.457-4.637-3.461
			c-0.356-1.608,0.119-3.177,1.306-4.296c0.511-0.479,0.691-1.212,0.471-1.874c-0.219-0.666-0.806-1.138-1.5-1.216
			c-2.273-0.26-3.986-2.17-3.986-4.437c0-1.237,0.504-2.396,1.421-3.263c0.511-0.479,0.691-1.213,0.471-1.875
			c-0.219-0.665-0.806-1.137-1.5-1.216C15.625,556.788,13.913,554.877,13.909,552.611z"/>
	</g>
</g>
</svg>
